<?xml version="1.0" encoding="UTF-8" standalone="no"?>
<svg
   xmlns:dc="http://purl.org/dc/elements/1.1/"
   xmlns:cc="http://creativecommons.org/ns#"
   xmlns:rdf="http://www.w3.org/1999/02/22-rdf-syntax-ns#"
   xmlns:svg="http://www.w3.org/2000/svg"
   xmlns="http://www.w3.org/2000/svg"
   version="1.1"
   id="svg2"
   viewBox="0 0 308.49998 182.5"
   height="51.505554mm"
   width="87.065552mm">
  <defs
     id="defs4">
    <marker
       orient="auto"
       refY="0"
       refX="0"
       id="InfiniteLineStart"
       style="overflow:visible">
      <g
         transform="translate(-13,0)"
         style="fill:#000000;fill-opacity:1;stroke:#000000;stroke-opacity:1"
         id="g4548">
        <circle
           style="fill:#000000;fill-opacity:1;stroke:#000000;stroke-opacity:1"
           cx="3"
           cy="0"
           r="0.80000001"
           id="circle4550" />
        <circle
           style="fill:#000000;fill-opacity:1;stroke:#000000;stroke-opacity:1"
           cx="6.5"
           cy="0"
           r="0.80000001"
           id="circle4552" />
        <circle
           style="fill:#000000;fill-opacity:1;stroke:#000000;stroke-opacity:1"
           cx="10"
           cy="0"
           r="0.80000001"
           id="circle4554" />
      </g>
    </marker>
    <marker
       style="overflow:visible"
       id="marker5737"
       refX="0"
       refY="0"
       orient="auto">
      <path
         transform="matrix(0.8,0,0,0.8,10,0)"
         style="fill:#000000;fill-opacity:1;fill-rule:evenodd;stroke:#000000;stroke-width:1pt;stroke-opacity:1"
         d="M 0,0 5,-5 -12.5,0 5,5 0,0 Z"
         id="path5739" />
    </marker>
    <marker
       style="overflow:visible"
       id="marker5715"
       refX="0"
       refY="0"
       orient="auto">
      <path
         transform="matrix(0.8,0,0,0.8,10,0)"
         style="fill:#000000;fill-opacity:1;fill-rule:evenodd;stroke:#000000;stroke-width:1pt;stroke-opacity:1"
         d="M 0,0 5,-5 -12.5,0 5,5 0,0 Z"
         id="path5717" />
    </marker>
    <marker
       style="overflow:visible"
       id="Arrow1Lstart"
       refX="0"
       refY="0"
       orient="auto">
      <path
         transform="matrix(0.8,0,0,0.8,10,0)"
         style="fill:#000000;fill-opacity:1;fill-rule:evenodd;stroke:#000000;stroke-width:1pt;stroke-opacity:1"
         d="M 0,0 5,-5 -12.5,0 5,5 0,0 Z"
         id="path4304" />
    </marker>
  </defs>
  <metadata
     id="metadata7">
    <rdf:RDF>
      <cc:Work
         rdf:about="">
        <dc:format>image/svg+xml</dc:format>
        <dc:type
           rdf:resource="http://purl.org/dc/dcmitype/StillImage" />
        <dc:title></dc:title>
      </cc:Work>
    </rdf:RDF>
  </metadata>
  <g
     transform="translate(-227.70354,-162.71309)"
     id="layer1">
    <g
       transform="matrix(1.0888034,0,0,1.0888034,-32.527152,-21.019413)"
       id="g4253">
      <g
         id="flowRoot4703-0"
         style="font-style:normal;font-variant:normal;font-weight:bold;font-stretch:normal;font-size:40px;line-height:125%;font-family:'Latin Modern Math';-inkscape-font-specification:'Sans Bold';letter-spacing:0px;word-spacing:0px;fill:#333333;fill-opacity:1;stroke:none;stroke-width:1px;stroke-linecap:butt;stroke-linejoin:miter;stroke-opacity:1"
         transform="matrix(2.120593,0,0,2.120593,-1262.5069,-1330.5019)">
        <path
           id="path4219"
           style="font-style:normal;font-variant:normal;font-weight:200;font-stretch:normal;font-family:Montserrat;-inkscape-font-specification:'Montserrat Ultra-Light';fill:#333333;fill-opacity:1"
           d="m 764.04469,732.72718 c -5.52,0 -9.2,2.6 -9.2,6.64 0,10.08 16.44,5.6 16.36,14.36 0,3.28 -3.08,5.36 -7.88,5.36 -3.28,0 -6.84,-1.44 -9.12,-3.8 l -0.88,1.48 c 2.44,2.4 6.24,4.04 9.96,4.04 5.84,0 9.72,-2.8 9.72,-7.12 0.08,-10.32 -16.36,-5.92 -16.36,-14.44 0,-2.92 2.88,-4.76 7.32,-4.76 2.4,0 5.24,0.68 7.32,2.04 l 0.76,-1.52 c -2.08,-1.36 -5.16,-2.28 -8,-2.28 z" />
        <path
           id="path4221"
           style="font-style:normal;font-variant:normal;font-weight:200;font-stretch:normal;font-family:Montserrat;-inkscape-font-specification:'Montserrat Ultra-Light';fill:#333333;fill-opacity:1"
           d="m 800.46906,747.04718 0,9.28 c -2.28,1.8 -5.24,2.88 -8.32,2.88 -7.08,0 -12.84,-5.56 -12.84,-12.44 0,-6.84 5.76,-12.4 12.84,-12.4 3.36,0 6.52,1.24 8.84,3.32 l 1,-1.24 c -2.6,-2.28 -6.08,-3.68 -9.84,-3.68 -8,0 -14.52,6.24 -14.52,14 0,7.76 6.48,14.04 14.44,14.04 3.72,0 7.32,-1.4 9.92,-3.64 l 0,-10.12 -1.52,0 z" />
        <path
           id="path4223"
           style="font-style:normal;font-variant:normal;font-weight:200;font-stretch:normal;font-family:Montserrat;-inkscape-font-specification:'Montserrat Ultra-Light';fill:#333333;fill-opacity:1"
           d="m 833.18156,760.76718 0,-27.96 -1.68,0 0,13.12 -18.92,0 0,-13.12 -1.68,0 0,27.96 1.68,0 0,-13.2 18.92,0 0,13.2 1.68,0 z" />
      </g>
      <g
         id="g6166"
         transform="translate(82.991943,-216.9127)">
        <g
           transform="translate(-3.6239222,14.785088)"
           id="g5496">
          <g
             id="g5229"
             transform="matrix(0.5,0.8660254,-0.8660254,0.5,500.46996,-452.32398)">
            <path
               id="path5231"
               d="m 583.53285,680.14961 0,17.71654 15.34297,-8.85827 z"
               style="fill:#000080;fill-rule:evenodd;stroke:none;stroke-width:1px;stroke-linecap:butt;stroke-linejoin:round;stroke-opacity:1" />
            <path
               id="path5233"
               d="m 583.53285,697.86615 15.34297,8.85826 0,-17.71653 z"
               style="fill:#0044aa;fill-rule:evenodd;stroke:none;stroke-width:1px;stroke-linecap:butt;stroke-linejoin:round;stroke-opacity:1" />
            <path
               id="path5235"
               d="m 583.53285,697.86615 15.34297,8.85826 -15.34297,8.85827 z"
               style="fill:#000080;fill-rule:evenodd;stroke:none;stroke-width:1px;stroke-linecap:butt;stroke-linejoin:round;stroke-opacity:1" />
            <path
               id="path5237"
               d="m 583.53285,715.58268 15.34297,8.85827 0,-17.71654 z"
               style="fill:#4d4d4d;fill-rule:evenodd;stroke:none;stroke-width:1px;stroke-linecap:butt;stroke-linejoin:round;stroke-opacity:1" />
            <path
               id="path5239"
               d="m 598.87582,706.72441 15.34297,8.85827 -15.34297,8.85827 z"
               style="fill:#999999;fill-opacity:1;fill-rule:evenodd;stroke:none;stroke-width:1px;stroke-linecap:butt;stroke-linejoin:round;stroke-opacity:1" />
            <path
               id="path5241"
               d="m 614.21879,715.58268 0,-17.71653 -15.34297,8.85826 z"
               style="fill:#4d4d4d;fill-opacity:1;fill-rule:evenodd;stroke:none;stroke-width:1px;stroke-linecap:butt;stroke-linejoin:round;stroke-opacity:1" />
            <path
               id="path5243"
               d="m 614.21879,715.58268 15.34297,-8.85827 -15.34297,-8.85826 z"
               style="fill:#999999;fill-opacity:1;fill-rule:evenodd;stroke:none;stroke-width:1px;stroke-linecap:butt;stroke-linejoin:round;stroke-opacity:1" />
            <path
               id="path5245"
               d="m 614.21879,715.58268 15.34297,8.85827 0,-17.71654 -15.34297,8.85827 z"
               style="fill:#4d4d4d;fill-opacity:1;fill-rule:evenodd;stroke:none;stroke-width:1px;stroke-linecap:butt;stroke-linejoin:round;stroke-opacity:1" />
            <path
               id="path5247"
               d="m 614.21879,715.58268 0,17.71654 15.34297,-8.85827 z"
               style="fill:#999999;fill-opacity:1;fill-rule:evenodd;stroke:none;stroke-width:1px;stroke-linecap:butt;stroke-linejoin:round;stroke-opacity:1" />
            <path
               id="path5249"
               d="m 614.21879,733.29922 15.34297,8.85827 0,-17.71654 z"
               style="fill:#4d4d4d;fill-opacity:1;fill-rule:evenodd;stroke:none;stroke-width:1px;stroke-linecap:butt;stroke-linejoin:round;stroke-opacity:1" />
            <path
               id="path5251"
               d="m 629.56176,724.44095 15.34297,8.85827 -15.34297,8.85827 z"
               style="fill:#800000;fill-rule:evenodd;stroke:none;stroke-width:1px;stroke-linecap:butt;stroke-linejoin:round;stroke-opacity:1" />
            <path
               id="path5253"
               d="m 629.56176,724.44095 15.34297,-8.85827 0,17.71654 z"
               style="fill:#d40000;fill-opacity:1;fill-rule:evenodd;stroke:none;stroke-width:1px;stroke-linecap:butt;stroke-linejoin:round;stroke-opacity:1" />
            <path
               id="path5255"
               d="m 644.90473,715.58268 15.34297,8.85827 -15.34297,8.85827 z"
               style="fill:#800000;fill-rule:evenodd;stroke:none;stroke-width:1px;stroke-linecap:butt;stroke-linejoin:round;stroke-opacity:1" />
          </g>
          <g
             transform="matrix(-0.5,0.8660254,0.8660254,0.5,-94.108189,-416.82138)"
             id="g5257">
            <path
               style="fill:#000080;fill-rule:evenodd;stroke:none;stroke-width:1px;stroke-linecap:butt;stroke-linejoin:round;stroke-opacity:1"
               d="m 583.53285,680.14961 0,17.71654 15.34297,-8.85827 z"
               id="path5259" />
            <path
               style="fill:#0044aa;fill-rule:evenodd;stroke:none;stroke-width:1px;stroke-linecap:butt;stroke-linejoin:round;stroke-opacity:1"
               d="m 583.53285,697.86615 15.34297,8.85826 0,-17.71653 z"
               id="path5261" />
            <path
               style="fill:#000080;fill-rule:evenodd;stroke:none;stroke-width:1px;stroke-linecap:butt;stroke-linejoin:round;stroke-opacity:1"
               d="m 583.53285,697.86615 15.34297,8.85826 -15.34297,8.85827 z"
               id="path5263" />
            <path
               style="fill:#4d4d4d;fill-rule:evenodd;stroke:none;stroke-width:1px;stroke-linecap:butt;stroke-linejoin:round;stroke-opacity:1"
               d="m 583.53285,715.58268 15.34297,8.85827 0,-17.71654 z"
               id="path5265" />
            <path
               style="fill:#999999;fill-opacity:1;fill-rule:evenodd;stroke:none;stroke-width:1px;stroke-linecap:butt;stroke-linejoin:round;stroke-opacity:1"
               d="m 598.87582,706.72441 15.34297,8.85827 -15.34297,8.85827 z"
               id="path5267" />
            <path
               style="fill:#4d4d4d;fill-opacity:1;fill-rule:evenodd;stroke:none;stroke-width:1px;stroke-linecap:butt;stroke-linejoin:round;stroke-opacity:1"
               d="m 614.21879,715.58268 0,-17.71653 -15.34297,8.85826 z"
               id="path5269" />
            <path
               style="fill:#999999;fill-opacity:1;fill-rule:evenodd;stroke:none;stroke-width:1px;stroke-linecap:butt;stroke-linejoin:round;stroke-opacity:1"
               d="m 614.21879,715.58268 15.34297,-8.85827 -15.34297,-8.85826 z"
               id="path5271" />
            <path
               style="fill:#4d4d4d;fill-opacity:1;fill-rule:evenodd;stroke:none;stroke-width:1px;stroke-linecap:butt;stroke-linejoin:round;stroke-opacity:1"
               d="m 614.21879,715.58268 15.34297,8.85827 0,-17.71654 -15.34297,8.85827 z"
               id="path5273" />
            <path
               style="fill:#999999;fill-opacity:1;fill-rule:evenodd;stroke:none;stroke-width:1px;stroke-linecap:butt;stroke-linejoin:round;stroke-opacity:1"
               d="m 614.21879,715.58268 0,17.71654 15.34297,-8.85827 z"
               id="path5275" />
            <path
               style="fill:#4d4d4d;fill-opacity:1;fill-rule:evenodd;stroke:none;stroke-width:1px;stroke-linecap:butt;stroke-linejoin:round;stroke-opacity:1"
               d="m 614.21879,733.29922 15.34297,8.85827 0,-17.71654 z"
               id="path5277" />
            <path
               style="fill:#800000;fill-rule:evenodd;stroke:none;stroke-width:1px;stroke-linecap:butt;stroke-linejoin:round;stroke-opacity:1"
               d="m 629.56176,724.44095 15.34297,8.85827 -15.34297,8.85827 z"
               id="path5279" />
            <path
               style="fill:#d40000;fill-opacity:1;fill-rule:evenodd;stroke:none;stroke-width:1px;stroke-linecap:butt;stroke-linejoin:round;stroke-opacity:1"
               d="m 629.56176,724.44095 15.34297,-8.85827 0,17.71654 z"
               id="path5281" />
            <path
               style="fill:#800000;fill-rule:evenodd;stroke:none;stroke-width:1px;stroke-linecap:butt;stroke-linejoin:round;stroke-opacity:1"
               d="m 644.90473,715.58268 15.34297,8.85827 -15.34297,8.85827 z"
               id="path5283" />
          </g>
        </g>
        <path
           id="path5699"
           d="m 199.45861,390.27559 0,159.44882"
           style="fill:none;fill-rule:evenodd;stroke:#4d4d4d;stroke-width:0.30000001;stroke-linecap:butt;stroke-linejoin:miter;stroke-miterlimit:4;stroke-dasharray:none;stroke-dashoffset:0;stroke-opacity:1" />
      </g>
    </g>
  </g>
</svg>
